<?xml version="1.0" encoding="UTF-8" standalone="no"?>
<svg xmlns:dc="http://purl.org/dc/elements/1.1/" xmlns:cc="http://creativecommons.org/ns#" xmlns:rdf="http://www.w3.org/1999/02/22-rdf-syntax-ns#" xmlns:svg="http://www.w3.org/2000/svg" xmlns="http://www.w3.org/2000/svg" viewBox="0 0 601 601" height="601" width="601" xml:space="preserve" id="svg14659" version="1.1"><metadata id="metadata14665"><rdf:RDF><cc:Work rdf:about=""><dc:format>image/svg+xml</dc:format><dc:type rdf:resource="http://purl.org/dc/dcmitype/StillImage"/><dc:title/></cc:Work></rdf:RDF></metadata><defs id="defs14663"/><g transform="matrix(1.3333333,0,0,-1.3333333,0,601)" id="g14667"><g id="g14669"><path id="path14671" style="fill:#ffffff;fill-opacity:1;fill-rule:nonzero;stroke:none" d="m 30.375,450.375 h 390 c 16.574,0 30,-13.426 30,-30 v -390 c 0,-16.574 -13.426,-30 -30,-30 h -390 c -16.574,0 -30,13.426 -30,30 v 390 c 0,16.574 13.426,30 30,30"/><path id="path14673" style="fill:#000000;fill-opacity:1;fill-rule:nonzero;stroke:none" d="m 30.375,442.875 c -12.43,0 -22.5,-10.082 -22.5,-22.5 v -390 c 0,-12.43 10.07,-22.496 22.5,-22.496 h 390 c 12.43,0 22.496,10.066 22.496,22.496 v 390 c 0,12.418 -10.066,22.5 -22.496,22.5 z m 0,-11.25 h 390 c 6.215,0 11.25,-5.035 11.25,-11.25 v -390 c 0,-6.219 -5.035,-11.25 -11.25,-11.25 h -390 c -6.215,0 -11.25,5.031 -11.25,11.25 v 390 c 0,6.215 5.035,11.25 11.25,11.25 z"/><g transform="matrix(1,0,0,-1,0,450.75)" id="g14675"><path id="path14677" style="fill:none;stroke:#000000;stroke-width:0.75;stroke-linecap:butt;stroke-linejoin:miter;stroke-miterlimit:4;stroke-dasharray:none;stroke-opacity:1" d="m 30.375,19.125 h 390 c 6.215,0 11.25,5.035 11.25,11.25 v 390 c 0,6.215 -5.035,11.25 -11.25,11.25 h -390 c -6.215,0 -11.25,-5.035 -11.25,-11.25 v -390 c 0,-6.215 5.035,-11.25 11.25,-11.25 z"/></g><path id="path14679" style="fill:#000000;fill-opacity:1;fill-rule:nonzero;stroke:none" d="M 30.375,450.75 C 13.598,450.75 0,437.152 0,420.375 v -390 C 0,13.602 13.598,0 30.375,0 h 390 c 16.773,0 30.375,13.602 30.375,30.375 v 390 c 0,16.777 -13.602,30.375 -30.375,30.375 z m 0,-0.375 h 390 c 16.574,0 30,-13.426 30,-30 v -390 c 0,-16.574 -13.426,-30 -30,-30 h -390 c -16.574,0 -30,13.426 -30,30 v 390 c 0,16.574 13.426,30 30,30 z"/><path id="path14681" style="fill:#008754;fill-opacity:1;fill-rule:nonzero;stroke:none" d="m 60.375,394.125 h 330 c 2.07,0 3.75,-1.68 3.75,-3.75 v -330 c 0,-2.07 -1.68,-3.75 -3.75,-3.75 h -330 c -2.07,0 -3.75,1.68 -3.75,3.75 v 330 c 0,2.07 1.68,3.75 3.75,3.75"/><path id="path14683" style="fill:#ffffff;fill-opacity:1;fill-rule:nonzero;stroke:none" d="m 208.504,280.262 v -8.438 l -13.879,0.012 c -3.699,0 -6.965,-2.406 -8.059,-5.941 l -3.375,-10.946 h 75.364 l 3.164,8.438 -17.86,4.269 c -0.941,0.227 -1.609,1.071 -1.609,2.043 0,1.16 0.941,2.102 2.102,2.102 l 35.871,0.023 v -8.437 h -9.493 l -3.164,-8.438 12.235,-27.379 c 4.222,1.379 8.633,2.078 13.074,2.078 23.301,0 42.187,-18.886 42.187,-42.187 0,-23.297 -18.886,-42.188 -42.187,-42.188 -20.047,0 -37.324,14.11 -41.336,33.754 l -17.727,-0.004 c -2.39,0 -4.667,1.016 -6.265,2.789 l -49.871,55.321 -3.356,-10.821 c 15.602,-6.605 25.742,-21.906 25.742,-38.851 0,-23.297 -18.886,-42.188 -42.187,-42.188 -23.301,0 -42.187,18.891 -42.187,42.188 0,23.301 18.886,42.187 42.187,42.187 2.816,0 5.625,-0.281 8.383,-0.839 l 12.246,39.582 c 2.187,7.066 8.723,11.882 16.121,11.882 z m -27.926,-33.75 52.832,-58.614 21.981,58.614 z m 61.676,-59.063 8.434,0.012 c 0,15.195 8.171,29.215 21.39,36.707 l -8.73,19.539 z m -78.504,33.239 -0.004,0.011 c -1.937,0.34 -3.902,0.512 -5.871,0.512 -18.641,0 -33.75,-15.109 -33.75,-33.75 0,-18.641 15.109,-33.75 33.75,-33.75 18.641,0 33.75,15.109 33.75,33.75 0,13.25 -7.75,25.273 -19.816,30.742 l -9.887,-31.996 c -0.547,-1.773 -2.188,-2.984 -4.047,-2.984 -2.34,0 -4.238,1.898 -4.238,4.238 0,0.426 0.066,0.848 0.191,1.254 z m 95.375,-33.227 0.004,-0.012 h 29.351 l -12.941,28.973 c -10.18,-6.098 -16.414,-17.094 -16.414,-28.961 z m 1.074,-8.449 v 0.011 c 3.848,-14.902 17.285,-25.312 32.676,-25.312 18.641,0 33.75,15.109 33.75,33.75 0,18.641 -15.109,33.75 -33.75,33.75 -3.254,0 -6.488,-0.469 -9.609,-1.395 l 15.543,-34.878 c 0.242,-0.54 0.367,-1.122 0.367,-1.715 0,-2.317 -1.879,-4.2 -4.199,-4.2 l -34.778,-0.011"/><path id="path14685" style="fill:#ffffff;fill-opacity:1;fill-rule:nonzero;stroke:none" d="m 118.125,87.375 15,44.25 h 81.75 l -3,-44.25 h -93.75"/><path id="path14687" style="fill:#ffffff;fill-opacity:1;fill-rule:nonzero;stroke:none" d="m 238.875,87.375 -3,44.25 h 81.75 l 15,-44.25 h -93.75"/><path id="path14689" style="fill:#ffffff;fill-opacity:1;fill-rule:nonzero;stroke:none" d="m 184.125,292.875 21,70.5 h 16.5 l -2.25,-70.5 h -35.25"/><path id="path14691" style="fill:#ffffff;fill-opacity:1;fill-rule:nonzero;stroke:none" d="m 231.375,292.875 -2.25,70.5 h 16.5 l 21,-70.5 h -35.25"/></g></g></svg>