<svg height="601" width="601" xml:space="preserve" xmlns="http://www.w3.org/2000/svg"><path style="fill:#fff;fill-opacity:1;fill-rule:nonzero;stroke:none;stroke-width:1.33333" d="M40.5.5h520c22.099 0 40 17.901 40 40v520c0 22.099-17.901 40-40 40h-520c-22.099 0-40-17.901-40-40v-520c0-22.099 17.901-40 40-40"/><path style="fill:#008754;fill-opacity:1;fill-rule:nonzero;stroke:none;stroke-width:1.78074" d="M6.675.013h587.667a6.68 6.68 0 0 1 6.678 6.678v587.632a6.68 6.68 0 0 1-6.678 6.678H6.675a6.68 6.68 0 0 1-6.678-6.678V6.691A6.68 6.68 0 0 1 6.675.013"/><path style="fill:#fff;fill-opacity:1;fill-rule:nonzero;stroke:none;stroke-width:1.33333" d="M278.005 227.317v11.251l-18.505-.016a11.244 11.244 0 0 0-10.745 7.921l-4.5 14.595H344.74l4.219-11.25-23.814-5.693a2.803 2.803 0 0 1 .657-5.527l47.829-.03v11.25h-12.658l-4.218 11.25 16.313 36.505a56.131 56.131 0 0 1 17.432-2.77c31.068 0 56.25 25.181 56.25 56.249 0 31.063-25.182 56.25-56.25 56.25-26.73 0-49.765-18.813-55.115-45.005l-23.636.005a11.25 11.25 0 0 1-8.353-3.718l-66.495-73.762-4.474 14.428c20.802 8.807 34.322 29.208 34.322 51.802 0 31.062-25.181 56.25-56.249 56.25s-56.25-25.188-56.25-56.25c0-31.068 25.182-56.25 56.25-56.25 3.755 0 7.5.375 11.177 1.119l16.328-52.776a22.498 22.498 0 0 1 21.495-15.843zm-37.234 45 70.442 78.152 29.308-78.152zm82.234 78.751 11.246-.016a56.257 56.257 0 0 1 28.52-48.943l-11.64-26.052zm-104.672-44.319-.005-.014a45.287 45.287 0 0 0-7.828-.683c-24.854 0-45 20.145-45 45s20.146 45 45 45c24.855 0 45-20.145 45-45a45 45 0 0 0-26.421-40.99l-13.183 42.662a5.646 5.646 0 0 1-5.396 3.979 5.652 5.652 0 0 1-5.396-7.323zM345.5 351.052l.005.016h39.135l-17.255-38.63a45.017 45.017 0 0 0-21.885 38.614zm1.432 11.265v-.014c5.13 19.869 23.047 33.749 43.568 33.749 24.855 0 45-20.145 45-45s-20.145-45-45-45c-4.339 0-8.65.625-12.812 1.86l20.724 46.504a5.6 5.6 0 0 1-5.11 7.887l-46.37.014M157.5 484.5l20-59h109l-4 59h-125M318.5 484.5l-4-59h109l20 59h-125M245.5 210.5l28-94h22l-3 94h-47M308.5 210.5l-3-94h22l28 94h-47"/></svg>